# xmcd CD database file
#
# Track frame offsets:
#	150
#	60231
#	87884
#	135606
#	183792
#	208819
#	234290
#	256877
#
# Disc length: 3660 seconds
#
# Revision: 1
# Processed by: cddbd v1.5.2PL0 Copyright (c) Steve Scherf et al.
# Submitted via: CDex 1.51
#
DISCID=5f0e4a08
DTITLE=Andrey Klimkovsky - Музыка Небесных Сфер - III
DYEAR=1900
DGENRE=New Age
TTITLE0=Там, где никто небыл
TTITLE1=Огни далекого города
TTITLE2=Ритмы космополиса
TTITLE3=Пустота
TTITLE4=Быстрые межгалактические звезды
TTITLE5=Далекие звездные острова
TTITLE6=InterGalactic trance
TTITLE7=Призрачный свет далекого Солнца
EXTD=
EXTT0=
EXTT1=
EXTT2=
EXTT3=
EXTT4=
EXTT5=
EXTT6=
EXTT7=
PLAYORDER=
